<svg width="156" height="26" viewBox="0 0 156 26" fill="none" xmlns="http://www.w3.org/2000/svg">
<g clip-path="url(#clip0_775_33)">
<path d="M12.7612 0.952688C13.2195 -0.135923 14.7806 -0.135922 15.2389 0.952691L17.9439 7.37788C18.1372 7.83681 18.5741 8.15038 19.0756 8.1901L26.0969 8.7462C27.2866 8.84042 27.7689 10.3071 26.8626 11.0741L21.5131 15.6011C21.131 15.9245 20.9641 16.4319 21.0808 16.9153L22.7152 23.6842C22.9921 24.831 21.7292 25.7376 20.7107 25.123L14.6994 21.4956C14.2701 21.2365 13.7301 21.2365 13.3007 21.4956L7.28937 25.123C6.27087 25.7376 5.00799 24.831 5.2849 23.6842L6.91928 16.9153C7.03602 16.4319 6.86915 15.9245 6.48706 15.6011L1.13747 11.0741C0.231094 10.3071 0.713475 8.84042 1.90311 8.7462L8.92452 8.1901C9.42605 8.15038 9.86292 7.83681 10.0561 7.37788L12.7612 0.952688Z" fill="#006B6A"/>
<path d="M44.7611 0.952688C45.2195 -0.135923 46.7805 -0.135922 47.2388 0.952691L49.9438 7.37788C50.1371 7.83681 50.574 8.15038 51.0755 8.1901L58.0968 8.7462C59.2865 8.84042 59.7688 10.3071 58.8625 11.0741L53.513 15.6011C53.1309 15.9245 52.964 16.4319 53.0807 16.9153L54.7151 23.6842C54.992 24.831 53.7291 25.7376 52.7106 25.123L46.6993 21.4956C46.27 21.2365 45.73 21.2365 45.3006 21.4956L39.2893 25.123C38.2708 25.7376 37.0079 24.831 37.2848 23.6842L38.9192 16.9153C39.0359 16.4319 38.8691 15.9245 38.487 15.6011L33.1374 11.0741C32.231 10.3071 32.7134 8.84042 33.903 8.7462L40.9244 8.1901C41.426 8.15038 41.8628 7.83681 42.056 7.37788L44.7611 0.952688Z" fill="#006B6A"/>
<path d="M76.7611 0.952688C77.2194 -0.135923 78.7804 -0.135922 79.2387 0.952691L81.9437 7.37788C82.1371 7.83681 82.574 8.15038 83.0755 8.1901L90.0968 8.7462C91.2864 8.84042 91.7688 10.3071 90.8624 11.0741L85.5129 15.6011C85.1309 15.9245 84.9639 16.4319 85.0806 16.9153L86.715 23.6842C86.9919 24.831 85.7291 25.7376 84.7106 25.123L78.6993 21.4956C78.2699 21.2365 77.7299 21.2365 77.3005 21.4956L71.2892 25.123C70.2707 25.7376 69.0078 24.831 69.2847 23.6842L70.9191 16.9153C71.0359 16.4319 70.869 15.9245 70.4869 15.6011L65.1373 11.0741C64.2309 10.3071 64.7133 8.84042 65.903 8.7462L72.9244 8.1901C73.4259 8.15038 73.8628 7.83681 74.056 7.37788L76.7611 0.952688Z" fill="#006B6A"/>
<path d="M108.761 0.952688C109.219 -0.135923 110.78 -0.135922 111.239 0.952691L113.944 7.37788C114.137 7.83681 114.574 8.15038 115.075 8.1901L122.097 8.7462C123.286 8.84042 123.769 10.3071 122.862 11.0741L117.513 15.6011C117.131 15.9245 116.964 16.4319 117.081 16.9153L118.715 23.6842C118.992 24.831 117.729 25.7376 116.711 25.123L110.699 21.4956C110.27 21.2365 109.73 21.2365 109.3 21.4956L103.289 25.123C102.271 25.7376 101.008 24.831 101.285 23.6842L102.919 16.9153C103.036 16.4319 102.869 15.9245 102.487 15.6011L97.1373 11.0741C96.2309 10.3071 96.7133 8.84042 97.9029 8.7462L104.924 8.1901C105.426 8.15038 105.863 7.83681 106.056 7.37788L108.761 0.952688Z" fill="#006B6A"/>
<path d="M140.761 0.952688C141.219 -0.135923 142.78 -0.135922 143.239 0.952691L145.944 7.37788C146.137 7.83681 146.574 8.15038 147.075 8.1901L154.097 8.7462C155.286 8.84042 155.769 10.3071 154.862 11.0741L149.513 15.6011C149.131 15.9245 148.964 16.4319 149.081 16.9153L150.715 23.6842C150.992 24.831 149.729 25.7376 148.71 25.123L142.699 21.4956C142.27 21.2365 141.73 21.2365 141.3 21.4956L135.289 25.123C134.271 25.7376 133.008 24.831 133.285 23.6842L134.919 16.9153C135.036 16.4319 134.869 15.9245 134.487 15.6011L129.137 11.0741C128.231 10.3071 128.713 8.84042 129.903 8.7462L136.924 8.1901C137.426 8.15038 137.863 7.83681 138.056 7.37788L140.761 0.952688Z" fill="#006B6A"/>
</g>
<defs>
<clipPath id="clip0_775_33">
<rect width="154.666" height="25.1852" fill="white" transform="translate(0.666718 0.13623)"/>
</clipPath>
</defs>
</svg>
