<svg width="155" height="26" viewBox="0 0 155 26" fill="none" xmlns="http://www.w3.org/2000/svg">
<g clip-path="url(#clip0_775_20)">
<path d="M12.4279 0.952688C12.8862 -0.135923 14.4472 -0.135922 14.9055 0.952691L17.6105 7.37788C17.8039 7.83681 18.2408 8.15038 18.7422 8.1901L25.7636 8.7462C26.9532 8.84042 27.4356 10.3071 26.5292 11.0741L21.1797 15.6011C20.7977 15.9245 20.6307 16.4319 20.7474 16.9153L22.3818 23.6842C22.6587 24.831 21.3959 25.7376 20.3774 25.123L14.3661 21.4956C13.9367 21.2365 13.3967 21.2365 12.9673 21.4956L6.95601 25.123C5.93751 25.7376 4.67463 24.831 4.95154 23.6842L6.58592 16.9153C6.70266 16.4319 6.53579 15.9245 6.1537 15.6011L0.804108 11.0741C-0.102265 10.3071 0.380116 8.84042 1.56975 8.7462L8.59117 8.1901C9.09269 8.15038 9.52957 7.83681 9.72278 7.37788L12.4279 0.952688Z" fill="#006B6A"/>
<path d="M44.4278 0.952688C44.8861 -0.135923 46.4471 -0.135922 46.9054 0.952691L49.6105 7.37788C49.8038 7.83681 50.2407 8.15038 50.7422 8.1901L57.7635 8.7462C58.9531 8.84042 59.4355 10.3071 58.5291 11.0741L53.1797 15.6011C52.7976 15.9245 52.6306 16.4319 52.7474 16.9153L54.3817 23.6842C54.6586 24.831 53.3958 25.7376 52.3773 25.123L46.366 21.4956C45.9366 21.2365 45.3966 21.2365 44.9673 21.4956L38.9559 25.123C37.9374 25.7376 36.6746 24.831 36.9515 23.6842L38.5858 16.9153C38.7026 16.4319 38.5357 15.9245 38.1536 15.6011L32.804 11.0741C31.8977 10.3071 32.38 8.84042 33.5697 8.7462L40.5911 8.1901C41.0926 8.15038 41.5295 7.83681 41.7227 7.37788L44.4278 0.952688Z" fill="#006B6A"/>
<path d="M76.4277 0.952688C76.8861 -0.135923 78.4471 -0.135922 78.9054 0.952691L81.6104 7.37788C81.8038 7.83681 82.2406 8.15038 82.7421 8.1901L89.7635 8.7462C90.9531 8.84042 91.4355 10.3071 90.5291 11.0741L85.1796 15.6011C84.7975 15.9245 84.6306 16.4319 84.7473 16.9153L86.3817 23.6842C86.6586 24.831 85.3958 25.7376 84.3772 25.123L78.3659 21.4956C77.9366 21.2365 77.3966 21.2365 76.9672 21.4956L70.9559 25.123C69.9374 25.7376 68.6745 24.831 68.9514 23.6842L70.5858 16.9153C70.7025 16.4319 70.5357 15.9245 70.1536 15.6011L64.804 11.0741C63.8976 10.3071 64.38 8.84042 65.5696 8.7462L72.591 8.1901C73.0926 8.15038 73.5294 7.83681 73.7227 7.37788L76.4277 0.952688Z" fill="#006B6A"/>
<path d="M108.428 0.952688C108.886 -0.135923 110.447 -0.135922 110.905 0.952691L113.61 7.37788C113.804 7.83681 114.241 8.15038 114.742 8.1901L121.763 8.7462C122.953 8.84042 123.435 10.3071 122.529 11.0741L117.18 15.6011C116.797 15.9245 116.63 16.4319 116.747 16.9153L118.382 23.6842C118.658 24.831 117.396 25.7376 116.377 25.123L110.366 21.4956C109.936 21.2365 109.396 21.2365 108.967 21.4956L102.956 25.123C101.937 25.7376 100.674 24.831 100.951 23.6842L102.586 16.9153C102.702 16.4319 102.536 15.9245 102.154 15.6011L96.8039 11.0741C95.8975 10.3071 96.3799 8.84042 97.5695 8.7462L104.591 8.1901C105.092 8.15038 105.529 7.83681 105.723 7.37788L108.428 0.952688Z" fill="#006B6A"/>
<path d="M140.428 0.952688C140.886 -0.135923 142.447 -0.135922 142.905 0.952691L145.61 7.37788C145.804 7.83681 146.241 8.15038 146.742 8.1901L153.763 8.7462C154.953 8.84042 155.435 10.3071 154.529 11.0741L149.179 15.6011C148.797 15.9245 148.63 16.4319 148.747 16.9153L150.382 23.6842C150.658 24.831 149.396 25.7376 148.377 25.123L142.366 21.4956C141.936 21.2365 141.396 21.2365 140.967 21.4956L134.956 25.123C133.937 25.7376 132.674 24.831 132.951 23.6842L134.586 16.9153C134.702 16.4319 134.536 15.9245 134.153 15.6011L128.804 11.0741C127.897 10.3071 128.38 8.84042 129.57 8.7462L136.591 8.1901C137.092 8.15038 137.529 7.83681 137.723 7.37788L140.428 0.952688Z" fill="#006B6A"/>
</g>
<defs>
<clipPath id="clip0_775_20">
<rect width="154.666" height="25.1852" fill="white" transform="translate(0.333359 0.13623)"/>
</clipPath>
</defs>
</svg>
